PathFileType	4	(X/Y/Z)	Run_300 02
DataRate	CameraRate	NumFrames	NumMarkers	Units	OrigDataRate	OrigDataStartFrame	OrigNumFrames
120	120	4	42	mm	120	161	128
Frame#	Time	LASI			RASI			LPSI			RPSI			RTH1			RTH2			RTH3			LTH1			LTH2			LTH3			RTB1			RTB2			LTB1			LTB2			LTB3			RCAL			RTOE			RMT5			LCAL			LTOE			LMT5			LACR			RACR			CLAV			C7			RUA1			RUA2			RUA3			RLEL			RMEL			LUA1			LUA2			LUA3			LLEL			LMEL			RFAsuperior			RFAradius			RFAulna			LFAsuperior			LFAradius			LFAulna			RTB3			
		X1	Y1	Z1	X2	Y2	Z2	X3	Y3	Z3	X4	Y4	Z4	X5	Y5	Z5	X6	Y6	Z6	X7	Y7	Z7	X8	Y8	Z8	X9	Y9	Z9	X10	Y10	Z10	X11	Y11	Z11	X12	Y12	Z12	X13	Y13	Z13	X14	Y14	Z14	X15	Y15	Z15	X16	Y16	Z16	X17	Y17	Z17	X18	Y18	Z18	X19	Y19	Z19	X20	Y20	Z20	X21	Y21	Z21	X22	Y22	Z22	X23	Y23	Z23	X24	Y24	Z24	X25	Y25	Z25	X26	Y26	Z26	X27	Y27	Z27	X28	Y28	Z28	X29	Y29	Z29	X30	Y30	Z30	X31	Y31	Z31	X32	Y32	Z32	X33	Y33	Z33	X34	Y34	Z34	X35	Y35	Z35	X36	Y36	Z36	X37	Y37	Z37	X38	Y38	Z38	X39	Y39	Z39	X40	Y40	Z40	X41	Y41	Z41	X42	Y42	Z42	

135	2.25	913.3684019999999	1099.162035	-453.167881	907.5586510000001	1095.512022	-200.082835	734.475576	1136.928869	-375.94788	734.584738	1139.126532	-292.459276	800.364065	929.462867	-153.476237	809.535114	810.027743	-173.75725	703.001114	732.199442	-207.365228	902.415485	887.824685	-507.521343	1007.074763	793.723315	-491.397732	985.80452	670.793459	-459.506562	591.520087	457.132843	-298.009075	518.624459	436.631121	-235.782387	1106.802669	465.813734	-390.560073	1098.684992	374.648325	-444.61283	1134.130282	267.933229	-375.266745	271.667998	377.30328	-334.339664	352.946457	158.201493	-330.183424	288.712762	209.139228	-250.167284	1062.273234	99.043104	-364.926988	1283.839985	169.900418	-331.336444	1241.574078	107.422799	-416.019438	924.078107	1563.596317	-521.859101	950.177251	1586.727907	-192.195007	977.913548	1516.997175	-324.461786	854.8172929999999	1604.964248	-344.835361	938.415406	1498.435635	-103.66373	943.084555	1409.5829	-95.266071	878.390578	1411.310214	-47.70267	872.3221129999999	1279.863068	13.32915	812.087589	1264.593242	-48.07079	867.277113	1502.671783	-593.419055	850.230082	1433.554217	-597.277844	756.38248	1460.37915	-575.86152	678.014898	1317.690127	-641.44623	640.804478	1323.092461	-562.596802	961.171217	1296.261343	-49.792405	1032.523758	1337.952687	-208.329027	1071.908855	1290.921711	-166.621604	764.9964649999999	1280.519348	-621.991283	906.218254	1233.917806	-513.64534	885.086188	1170.965027	-542.413418	452.266909	363.816498	-307.043252	
136	2.258333	913.477278	1096.164317	-454.614105	908.647906	1093.198862	-200.68333	734.271739	1133.334652	-374.701773	735.039463	1135.559933	-291.179899	804.741217	924.978174	-154.248083	815.290752	805.99913	-175.198653	710.36777	726.379362	-207.985818	900.7065219999999	883.959267	-508.714393	1005.851251	789.696622	-493.151228	984.809064	667.467934	-458.988731	597.5635129999999	456.537073	-298.63419	523.7654669999999	440.197075	-235.940411	1104.047864	462.066868	-389.466705	1095.248783	370.613987	-443.124335	1129.350461	263.753437	-373.599991	272.579596	394.895995	-333.529055	343.188087	172.176706	-327.554861	281.824868	227.007809	-247.762437	1055.751108	95.49463	-360.905646	1278.977294	164.268916	-333.495628	1233.483674	102.032059	-416.772346	924.970315	1559.992082	-523.168216	950.328717	1584.001841	-193.519525	978.0743660000001	1513.646716	-325.456758	855.1232220000001	1602.053979	-346.578656	937.087662	1496.013119	-104.408905	940.1863959999999	1407.473162	-95.37294300000001	875.073099	1410.339501	-48.593615	866.4711160000001	1279.120758	12.81726	806.1797330000001	1265.012594	-48.75842	869.33091	1497.780858	-595.216946	853.308757	1428.305809	-598.674226	759.006676	1453.766468	-578.42335	683.580072	1309.904898	-644.5929180000001	645.219934	1314.894347	-566.166047	956.402756	1291.626632	-49.825417	1029.740298	1329.840475	-208.539262	1067.321274	1282.087442	-166.263998	771.105916	1274.145726	-624.529597	911.362662	1230.058036	-513.686671	891.909942	1166.615899	-543.108389	457.369038	367.351139	-307.055051	
137	2.266667	913.714265	1092.759481	-456.439357	909.640098	1090.189959	-200.817691	734.116721	1129.01061	-373.496735	735.581786	1131.088324	-289.9318	809.038332	919.927605	-154.8914	821.303818	801.352562	-176.225867	718.301232	719.572354	-208.43078	899.638707	880.209955	-508.550951	1004.879811	786.51103	-493.186876	983.418731	663.488927	-458.400893	604.966938	455.394812	-298.984159	530.510363	443.327339	-235.744556	1100.086011	456.843533	-388.29694	1090.124672	365.287867	-441.839555	1122.190659	258.00317	-372.180718	275.958202	412.307908	-332.154838	335.371085	186.426329	-324.979562	277.437899	244.786743	-245.343037	1045.896863	92.33630599999999	-356.913313	1270.767478	155.802354	-335.063912	1221.555573	94.448582	-417.268876	925.712841	1555.598664	-524.409583	950.174383	1580.519635	-194.737099	978.212282	1509.569657	-326.172144	855.315504	1598.447388	-348.370403	935.190119	1493.056668	-105.025804	936.678623	1404.643461	-95.42108399999999	871.218434	1408.679023	-49.4875	859.869336	1277.77084	12.26387	799.823886	1264.767992	-49.721391	871.686799	1491.883893	-597.19666	856.749139	1422.049783	-600.047943	762.016293	1445.915291	-581.362651	689.811816	1300.977785	-648.123011	650.351369	1305.470773	-570.201697	950.95063	1286.180111	-49.489084	1027.129776	1320.048087	-208.180048	1062.473192	1271.82671	-164.925058	777.723357	1266.339319	-626.918644	916.9356330000001	1225.227575	-513.775341	899.284293	1161.341537	-543.70218	464.750801	369.942207	-306.813198	
138	2.275	914.018683	1088.994736	-457.802149	910.531052	1086.473673	-200.704523	734.08515	1123.960319	-372.481141	736.195048	1125.631906	-288.919473	813.358205	914.3027520000001	-155.370711	827.743662	795.975834	-176.726586	726.911742	711.853692	-208.547704	899.436985	876.3738949999999	-507.198074	1004.05542	783.896174	-491.180274	981.5740500000001	658.821738	-457.877432	613.596498	453.670069	-298.899927	538.701232	445.912607	-235.118107	1095.113043	450.018367	-387.262323	1083.25118	358.531984	-440.642547	1113.105271	250.734096	-370.913636	281.780681	429.151155	-330.292082	329.685989	200.64842	-322.498573	275.598601	262.118185	-242.918414	1033.074686	90.51544	-353.102444	1259.603142	143.80812	-335.714339	1206.151449	84.762908	-417.415996	926.373261	1550.475053	-525.543231	949.773904	1576.315885	-195.757171	978.299304	1504.822728	-326.69457	855.34602	1594.102495	-350.176384	932.843722	1489.493252	-105.554071	932.668935	1401.071713	-95.440866	866.864615	1406.342181	-50.402526	852.62173	1275.833461	11.666552	793.053709	1263.832473	-50.917821	874.302579	1485.061415	-599.167413	860.488343	1414.909612	-601.383769	765.361255	1436.960528	-584.6559600000001	696.676588	1290.9992	-651.960508	655.9389	1294.933949	-574.557652	944.812355	1280.065568	-48.810266	1024.574883	1308.80635	-207.117531	1057.374471	1260.307675	-162.547616	784.856536	1257.298819	-629.230168	922.960901	1219.493846	-514.033403	907.112748	1155.200206	-544.1580300000001	473.64704	371.962851	-306.190921	
